<mxfile host="Electron" modified="2024-01-30T23:40:10.646Z" agent="Mozilla/5.0 (Windows NT 10.0; Win64; x64) AppleWebKit/537.36 (KHTML, like Gecko) draw.io/22.1.18 Chrome/120.0.6099.199 Electron/28.1.2 Safari/537.36" etag="VygQC3QALK2p5nrWdYTT" version="22.1.18" type="device">
  <diagram id="rHk3gjvVNc00_DlIDdCf" name="Page-1">
    <mxGraphModel dx="1505" dy="980" grid="0" gridSize="19" guides="1" tooltips="1" connect="1" arrows="1" fold="1" page="1" pageScale="1" pageWidth="850" pageHeight="1100" background="none" math="0" shadow="0">
      <root>
        <mxCell id="0" />
        <mxCell id="1" parent="0" />
        <mxCell id="5p4-klABl4z1z5n9kfjx-3" value="" style="outlineConnect=0;whiteSpace=wrap;verticalLabelPosition=bottom;verticalAlign=top;align=center;shape=mxgraph.archimate3.actor;fillColor=#A8DADC;strokeColor=#457B9D;fontColor=#1D3557;" parent="1" vertex="1">
          <mxGeometry x="10.5" y="265" width="133" height="266" as="geometry" />
        </mxCell>
        <mxCell id="5p4-klABl4z1z5n9kfjx-4" value="&lt;font style=&quot;line-height: 190% ; font-size: 30px&quot; face=&quot;Comic Sans MS&quot; color=&quot;#000000&quot;&gt;User&lt;/font&gt;" style="text;html=1;align=center;verticalAlign=middle;resizable=0;points=[];autosize=1;fontColor=#1D3557;" parent="1" vertex="1">
          <mxGeometry x="38.5" y="520" width="77" height="61" as="geometry" />
        </mxCell>
        <mxCell id="5p4-klABl4z1z5n9kfjx-33" value="" style="endArrow=none;html=1;fontFamily=Comic Sans MS;exitX=0;exitY=0.5;exitDx=0;exitDy=0;labelBackgroundColor=#F1FAEE;strokeColor=#457B9D;fontColor=#1D3557;" parent="1" source="5p4-klABl4z1z5n9kfjx-48" edge="1">
          <mxGeometry width="50" height="50" relative="1" as="geometry">
            <mxPoint x="303" y="247.5" as="sourcePoint" />
            <mxPoint x="152" y="380" as="targetPoint" />
          </mxGeometry>
        </mxCell>
        <mxCell id="5p4-klABl4z1z5n9kfjx-34" value="" style="endArrow=none;html=1;fontFamily=Comic Sans MS;exitX=0;exitY=0.5;exitDx=0;exitDy=0;labelBackgroundColor=#F1FAEE;strokeColor=#457B9D;fontColor=#1D3557;" parent="1" source="5p4-klABl4z1z5n9kfjx-50" edge="1">
          <mxGeometry width="50" height="50" relative="1" as="geometry">
            <mxPoint x="288" y="314" as="sourcePoint" />
            <mxPoint x="152" y="380" as="targetPoint" />
          </mxGeometry>
        </mxCell>
        <mxCell id="5p4-klABl4z1z5n9kfjx-35" value="" style="endArrow=none;html=1;fontFamily=Comic Sans MS;entryX=1;entryY=0.45;entryDx=0;entryDy=0;exitX=0;exitY=0.5;exitDx=0;exitDy=0;entryPerimeter=0;labelBackgroundColor=#F1FAEE;strokeColor=#457B9D;fontColor=#1D3557;" parent="1" source="5p4-klABl4z1z5n9kfjx-52" target="5p4-klABl4z1z5n9kfjx-3" edge="1">
          <mxGeometry width="50" height="50" relative="1" as="geometry">
            <mxPoint x="290" y="385.4999999999999" as="sourcePoint" />
            <mxPoint x="324.00000000000057" y="191" as="targetPoint" />
          </mxGeometry>
        </mxCell>
        <mxCell id="5p4-klABl4z1z5n9kfjx-41" value="&lt;font size=&quot;1&quot; color=&quot;#000000&quot;&gt;&lt;u&gt;&lt;b style=&quot;font-size: 55px&quot;&gt;Use Case&lt;/b&gt;&lt;/u&gt;&lt;/font&gt;" style="text;html=1;align=center;verticalAlign=middle;resizable=0;points=[];autosize=1;fontFamily=Comic Sans MS;fontColor=#1D3557;" parent="1" vertex="1">
          <mxGeometry x="304" y="18" width="254" height="36" as="geometry" />
        </mxCell>
        <mxCell id="5p4-klABl4z1z5n9kfjx-45" value="&lt;font size=&quot;1&quot;&gt;&lt;b style=&quot;font-size: 12px&quot;&gt;Select_Media_Type&lt;/b&gt;&lt;/font&gt;" style="ellipse;whiteSpace=wrap;html=1;strokeWidth=4;fontFamily=Comic Sans MS;fillColor=#A8DADC;strokeColor=#457B9D;fontColor=#1D3557;" parent="1" vertex="1">
          <mxGeometry x="278.5" y="114" width="137" height="38" as="geometry" />
        </mxCell>
        <mxCell id="5p4-klABl4z1z5n9kfjx-48" value="&lt;b&gt;Upload_Media&lt;/b&gt;" style="ellipse;whiteSpace=wrap;html=1;strokeWidth=4;fontFamily=Comic Sans MS;fillColor=#A8DADC;strokeColor=#457B9D;fontColor=#1D3557;" parent="1" vertex="1">
          <mxGeometry x="289" y="171" width="118" height="38" as="geometry" />
        </mxCell>
        <mxCell id="5p4-klABl4z1z5n9kfjx-50" value="&lt;b&gt;&lt;font style=&quot;font-size: 15px&quot;&gt;Sign_UP&lt;/font&gt;&lt;/b&gt;" style="ellipse;whiteSpace=wrap;html=1;strokeWidth=4;fontFamily=Comic Sans MS;fillColor=#A8DADC;strokeColor=#457B9D;fontColor=#1D3557;" parent="1" vertex="1">
          <mxGeometry x="287" y="227" width="118" height="38" as="geometry" />
        </mxCell>
        <mxCell id="5p4-klABl4z1z5n9kfjx-52" value="&lt;b&gt;&lt;font style=&quot;font-size: 14px&quot;&gt;Sign_IN&lt;/font&gt;&lt;/b&gt;" style="ellipse;whiteSpace=wrap;html=1;strokeWidth=4;fontFamily=Comic Sans MS;fillColor=#A8DADC;strokeColor=#457B9D;fontColor=#1D3557;" parent="1" vertex="1">
          <mxGeometry x="278.5" y="285" width="118" height="40" as="geometry" />
        </mxCell>
        <mxCell id="5p4-klABl4z1z5n9kfjx-53" value="&lt;b&gt;&lt;font style=&quot;font-size: 15px&quot;&gt;Subscribe&lt;/font&gt;&lt;/b&gt;" style="ellipse;whiteSpace=wrap;html=1;strokeWidth=4;fontFamily=Comic Sans MS;fillColor=#A8DADC;strokeColor=#457B9D;fontColor=#1D3557;" parent="1" vertex="1">
          <mxGeometry x="266" y="380" width="114" height="57" as="geometry" />
        </mxCell>
        <mxCell id="5p4-klABl4z1z5n9kfjx-54" value="&lt;b&gt;&lt;font style=&quot;font-size: 12px&quot;&gt;Show_Profile _info&lt;/font&gt;&lt;/b&gt;" style="ellipse;whiteSpace=wrap;html=1;strokeWidth=4;fontFamily=Comic Sans MS;fillColor=#A8DADC;strokeColor=#457B9D;fontColor=#1D3557;" parent="1" vertex="1">
          <mxGeometry x="278.5" y="458" width="120" height="38" as="geometry" />
        </mxCell>
        <mxCell id="5p4-klABl4z1z5n9kfjx-55" value="&lt;b&gt;&lt;font style=&quot;font-size: 13px&quot;&gt;Show_History&lt;/font&gt;&lt;/b&gt;" style="ellipse;whiteSpace=wrap;html=1;strokeWidth=4;fontFamily=Comic Sans MS;fillColor=#A8DADC;strokeColor=#457B9D;fontColor=#1D3557;" parent="1" vertex="1">
          <mxGeometry x="289" y="515" width="120" height="38" as="geometry" />
        </mxCell>
        <mxCell id="5p4-klABl4z1z5n9kfjx-56" value="&lt;b&gt;&lt;font style=&quot;font-size: 15px&quot;&gt;Feedback&lt;/font&gt;&lt;/b&gt;" style="ellipse;whiteSpace=wrap;html=1;strokeWidth=4;fontFamily=Comic Sans MS;fillColor=#A8DADC;strokeColor=#457B9D;fontColor=#1D3557;" parent="1" vertex="1">
          <mxGeometry x="285" y="570" width="120" height="38" as="geometry" />
        </mxCell>
        <mxCell id="5p4-klABl4z1z5n9kfjx-57" value="&lt;b&gt;&lt;font style=&quot;font-size: 14px&quot;&gt;Log_out&lt;/font&gt;&lt;/b&gt;" style="ellipse;whiteSpace=wrap;html=1;strokeWidth=4;fontFamily=Comic Sans MS;fillColor=#A8DADC;strokeColor=#457B9D;fontColor=#1D3557;" parent="1" vertex="1">
          <mxGeometry x="286" y="627" width="120" height="38" as="geometry" />
        </mxCell>
        <mxCell id="5p4-klABl4z1z5n9kfjx-62" value="Extends" style="endArrow=block;endSize=16;endFill=0;html=1;fontFamily=Comic Sans MS;exitX=1;exitY=0.5;exitDx=0;exitDy=0;labelBackgroundColor=#F1FAEE;strokeColor=#457B9D;fontColor=#1D3557;" parent="1" source="5p4-klABl4z1z5n9kfjx-54" edge="1">
          <mxGeometry x="-0.05" width="160" relative="1" as="geometry">
            <mxPoint x="437" y="437" as="sourcePoint" />
            <mxPoint x="532" y="477" as="targetPoint" />
            <mxPoint as="offset" />
          </mxGeometry>
        </mxCell>
        <mxCell id="5p4-klABl4z1z5n9kfjx-63" value="&lt;b&gt;&lt;font style=&quot;font-size: 14px&quot;&gt;Edit_Profile&lt;/font&gt;&lt;/b&gt;" style="ellipse;whiteSpace=wrap;html=1;strokeWidth=4;fontFamily=Comic Sans MS;fillColor=#A8DADC;strokeColor=#457B9D;fontColor=#1D3557;" parent="1" vertex="1">
          <mxGeometry x="541.5" y="458" width="114" height="38" as="geometry" />
        </mxCell>
        <mxCell id="5p4-klABl4z1z5n9kfjx-65" value="&lt;b style=&quot;font-size: 14px&quot;&gt;Detect_AI_&lt;br&gt;Generated_Media&lt;/b&gt;" style="ellipse;whiteSpace=wrap;html=1;strokeWidth=4;fontFamily=Comic Sans MS;fillColor=#A8DADC;strokeColor=#457B9D;fontColor=#1D3557;" parent="1" vertex="1">
          <mxGeometry x="412" y="681" width="171" height="57" as="geometry" />
        </mxCell>
        <mxCell id="5p4-klABl4z1z5n9kfjx-67" value="" style="outlineConnect=0;whiteSpace=wrap;verticalLabelPosition=bottom;verticalAlign=top;align=center;shape=mxgraph.archimate3.actor;fillColor=#A8DADC;strokeColor=#457B9D;fontColor=#1D3557;" parent="1" vertex="1">
          <mxGeometry x="10.5" y="760" width="142.5" height="247" as="geometry" />
        </mxCell>
        <mxCell id="5p4-klABl4z1z5n9kfjx-68" value="&lt;b&gt;&lt;font style=&quot;font-size: 17px&quot;&gt;Sign_In&lt;/font&gt;&lt;/b&gt;" style="ellipse;whiteSpace=wrap;html=1;strokeWidth=4;fontFamily=Comic Sans MS;fillColor=#A8DADC;strokeColor=#457B9D;fontColor=#1D3557;" parent="1" vertex="1">
          <mxGeometry x="298" y="779" width="139" height="48" as="geometry" />
        </mxCell>
        <mxCell id="5p4-klABl4z1z5n9kfjx-70" value="&lt;b&gt;&lt;font style=&quot;font-size: 14px&quot;&gt;Analtyics_Reports&lt;/font&gt;&lt;/b&gt;" style="ellipse;whiteSpace=wrap;html=1;strokeWidth=4;fontFamily=Comic Sans MS;fillColor=#A8DADC;strokeColor=#457B9D;fontColor=#1D3557;" parent="1" vertex="1">
          <mxGeometry x="291" y="846" width="148" height="48" as="geometry" />
        </mxCell>
        <mxCell id="5p4-klABl4z1z5n9kfjx-71" value="&lt;b&gt;&lt;font style=&quot;font-size: 16px&quot;&gt;System Management&lt;/font&gt;&lt;/b&gt;" style="ellipse;whiteSpace=wrap;html=1;strokeWidth=4;fontFamily=Comic Sans MS;fillColor=#A8DADC;strokeColor=#457B9D;fontColor=#1D3557;" parent="1" vertex="1">
          <mxGeometry x="267" y="931" width="189" height="57" as="geometry" />
        </mxCell>
        <mxCell id="5p4-klABl4z1z5n9kfjx-72" value="" style="endArrow=none;html=1;fontFamily=Comic Sans MS;entryX=0;entryY=0.5;entryDx=0;entryDy=0;exitX=1;exitY=0.45;exitDx=0;exitDy=0;exitPerimeter=0;labelBackgroundColor=#F1FAEE;strokeColor=#457B9D;fontColor=#1D3557;" parent="1" source="5p4-klABl4z1z5n9kfjx-67" target="5p4-klABl4z1z5n9kfjx-68" edge="1">
          <mxGeometry width="50" height="50" relative="1" as="geometry">
            <mxPoint x="152" y="871" as="sourcePoint" />
            <mxPoint x="202" y="760" as="targetPoint" />
          </mxGeometry>
        </mxCell>
        <mxCell id="5p4-klABl4z1z5n9kfjx-73" value="" style="endArrow=none;html=1;fontFamily=Comic Sans MS;entryX=0;entryY=0.5;entryDx=0;entryDy=0;labelBackgroundColor=#F1FAEE;strokeColor=#457B9D;fontColor=#1D3557;" parent="1" target="5p4-klABl4z1z5n9kfjx-70" edge="1">
          <mxGeometry width="50" height="50" relative="1" as="geometry">
            <mxPoint x="152" y="870" as="sourcePoint" />
            <mxPoint x="203.71067811865476" y="845.5" as="targetPoint" />
          </mxGeometry>
        </mxCell>
        <mxCell id="5p4-klABl4z1z5n9kfjx-74" value="" style="endArrow=none;html=1;fontFamily=Comic Sans MS;exitX=0;exitY=0.5;exitDx=0;exitDy=0;labelBackgroundColor=#F1FAEE;strokeColor=#457B9D;fontColor=#1D3557;" parent="1" source="5p4-klABl4z1z5n9kfjx-71" edge="1">
          <mxGeometry width="50" height="50" relative="1" as="geometry">
            <mxPoint x="95" y="943" as="sourcePoint" />
            <mxPoint x="157" y="871" as="targetPoint" />
          </mxGeometry>
        </mxCell>
        <mxCell id="5p4-klABl4z1z5n9kfjx-75" value="" style="outlineConnect=0;whiteSpace=wrap;verticalLabelPosition=bottom;verticalAlign=top;align=center;shape=mxgraph.archimate3.actor;fillColor=#A8DADC;strokeColor=#457B9D;fontColor=#1D3557;" parent="1" vertex="1">
          <mxGeometry x="712.5" y="604" width="114" height="247" as="geometry" />
        </mxCell>
        <mxCell id="5p4-klABl4z1z5n9kfjx-76" value="" style="endArrow=none;html=1;fontFamily=Comic Sans MS;entryX=0;entryY=0.45;entryDx=0;entryDy=0;entryPerimeter=0;labelBackgroundColor=#F1FAEE;strokeColor=#457B9D;fontColor=#1D3557;" parent="1" source="5p4-klABl4z1z5n9kfjx-65" target="5p4-klABl4z1z5n9kfjx-75" edge="1">
          <mxGeometry width="50" height="50" relative="1" as="geometry">
            <mxPoint x="627" y="681" as="sourcePoint" />
            <mxPoint x="696" y="684" as="targetPoint" />
          </mxGeometry>
        </mxCell>
        <mxCell id="5p4-klABl4z1z5n9kfjx-78" value="&lt;font size=&quot;1&quot; color=&quot;#000000&quot;&gt;&lt;b style=&quot;line-height: 170% ; font-size: 27px&quot;&gt;Admin&lt;/b&gt;&lt;/font&gt;" style="text;html=1;align=center;verticalAlign=middle;resizable=0;points=[];autosize=1;fontFamily=Comic Sans MS;fontColor=#1D3557;" parent="1" vertex="1">
          <mxGeometry x="23.5" y="1011" width="88" height="50" as="geometry" />
        </mxCell>
        <mxCell id="5p4-klABl4z1z5n9kfjx-79" value="&lt;font size=&quot;1&quot; color=&quot;#000000&quot;&gt;&lt;b style=&quot;font-size: 30px&quot;&gt;System&lt;/b&gt;&lt;/font&gt;" style="text;html=1;align=center;verticalAlign=middle;resizable=0;points=[];autosize=1;fontFamily=Comic Sans MS;fontColor=#1D3557;" parent="1" vertex="1">
          <mxGeometry x="712.5" y="863" width="116" height="26" as="geometry" />
        </mxCell>
        <mxCell id="5p4-klABl4z1z5n9kfjx-80" value="" style="endArrow=none;html=1;fontFamily=Comic Sans MS;labelBackgroundColor=#F1FAEE;strokeColor=#457B9D;fontColor=#1D3557;" parent="1" edge="1">
          <mxGeometry width="50" height="50" relative="1" as="geometry">
            <mxPoint x="152" y="95" as="sourcePoint" />
            <mxPoint x="684" y="95" as="targetPoint" />
          </mxGeometry>
        </mxCell>
        <mxCell id="5p4-klABl4z1z5n9kfjx-81" value="" style="endArrow=none;html=1;fontFamily=Comic Sans MS;labelBackgroundColor=#F1FAEE;strokeColor=#457B9D;fontColor=#1D3557;" parent="1" edge="1">
          <mxGeometry width="50" height="50" relative="1" as="geometry">
            <mxPoint x="151" y="1064" as="sourcePoint" />
            <mxPoint x="688" y="1064" as="targetPoint" />
          </mxGeometry>
        </mxCell>
        <mxCell id="5p4-klABl4z1z5n9kfjx-82" value="" style="endArrow=none;html=1;fontFamily=Comic Sans MS;labelBackgroundColor=#F1FAEE;strokeColor=#457B9D;fontColor=#1D3557;" parent="1" edge="1">
          <mxGeometry width="50" height="50" relative="1" as="geometry">
            <mxPoint x="684" y="1064" as="sourcePoint" />
            <mxPoint x="684" y="95" as="targetPoint" />
          </mxGeometry>
        </mxCell>
        <mxCell id="5p4-klABl4z1z5n9kfjx-83" value="" style="endArrow=none;html=1;fontFamily=Comic Sans MS;labelBackgroundColor=#F1FAEE;strokeColor=#457B9D;fontColor=#1D3557;" parent="1" edge="1">
          <mxGeometry width="50" height="50" relative="1" as="geometry">
            <mxPoint x="152" y="1064" as="sourcePoint" />
            <mxPoint x="152" y="95" as="targetPoint" />
          </mxGeometry>
        </mxCell>
        <mxCell id="5p4-klABl4z1z5n9kfjx-84" value="" style="endArrow=none;html=1;fontFamily=Comic Sans MS;entryX=0;entryY=0.5;entryDx=0;entryDy=0;labelBackgroundColor=#F1FAEE;strokeColor=#457B9D;fontColor=#1D3557;" parent="1" target="5p4-klABl4z1z5n9kfjx-53" edge="1">
          <mxGeometry width="50" height="50" relative="1" as="geometry">
            <mxPoint x="152" y="380" as="sourcePoint" />
            <mxPoint x="259" y="418" as="targetPoint" />
          </mxGeometry>
        </mxCell>
        <mxCell id="5p4-klABl4z1z5n9kfjx-88" value="Extends" style="endArrow=block;endSize=16;endFill=0;html=1;fontFamily=Comic Sans MS;exitX=1;exitY=0.5;exitDx=0;exitDy=0;entryX=0;entryY=0.5;entryDx=0;entryDy=0;labelBackgroundColor=#F1FAEE;strokeColor=#457B9D;fontColor=#1D3557;" parent="1" source="5p4-klABl4z1z5n9kfjx-53" target="5p4-klABl4z1z5n9kfjx-89" edge="1">
          <mxGeometry width="160" relative="1" as="geometry">
            <mxPoint x="494" y="380" as="sourcePoint" />
            <mxPoint x="532" y="370" as="targetPoint" />
          </mxGeometry>
        </mxCell>
        <mxCell id="5p4-klABl4z1z5n9kfjx-89" value="&lt;b&gt;&lt;font style=&quot;font-size: 17px&quot;&gt;Cancel_plan&lt;/font&gt;&lt;/b&gt;" style="ellipse;whiteSpace=wrap;html=1;strokeWidth=4;fontFamily=Comic Sans MS;fillColor=#A8DADC;strokeColor=#457B9D;fontColor=#1D3557;" parent="1" vertex="1">
          <mxGeometry x="532" y="391.5" width="133" height="41" as="geometry" />
        </mxCell>
        <mxCell id="5p4-klABl4z1z5n9kfjx-92" value="&amp;lt;&amp;lt;include&amp;gt;&amp;gt;" style="edgeStyle=none;html=1;endArrow=open;verticalAlign=bottom;dashed=1;labelBackgroundColor=none;fontFamily=Comic Sans MS;exitX=1;exitY=0.5;exitDx=0;exitDy=0;entryX=0;entryY=0.5;entryDx=0;entryDy=0;strokeColor=#457B9D;fontColor=#1D3557;" parent="1" source="5p4-klABl4z1z5n9kfjx-53" target="5p4-klABl4z1z5n9kfjx-96" edge="1">
          <mxGeometry width="160" relative="1" as="geometry">
            <mxPoint x="475" y="247" as="sourcePoint" />
            <mxPoint x="475" y="188" as="targetPoint" />
          </mxGeometry>
        </mxCell>
        <mxCell id="5p4-klABl4z1z5n9kfjx-93" value="&amp;lt;&amp;lt;include&amp;gt;&amp;gt;" style="edgeStyle=none;html=1;endArrow=open;verticalAlign=bottom;dashed=1;labelBackgroundColor=none;fontFamily=Comic Sans MS;exitX=1;exitY=0.5;exitDx=0;exitDy=0;entryX=0;entryY=0.5;entryDx=0;entryDy=0;strokeColor=#457B9D;fontColor=#1D3557;" parent="1" source="5p4-klABl4z1z5n9kfjx-53" target="5p4-klABl4z1z5n9kfjx-97" edge="1">
          <mxGeometry width="160" relative="1" as="geometry">
            <mxPoint x="418" y="361" as="sourcePoint" />
            <mxPoint x="513" y="304" as="targetPoint" />
          </mxGeometry>
        </mxCell>
        <mxCell id="5p4-klABl4z1z5n9kfjx-94" value="" style="endArrow=none;html=1;fontFamily=Comic Sans MS;entryX=0;entryY=0.5;entryDx=0;entryDy=0;labelBackgroundColor=#F1FAEE;strokeColor=#457B9D;fontColor=#1D3557;" parent="1" target="5p4-klABl4z1z5n9kfjx-57" edge="1">
          <mxGeometry width="50" height="50" relative="1" as="geometry">
            <mxPoint x="152" y="380" as="sourcePoint" />
            <mxPoint x="278" y="608" as="targetPoint" />
          </mxGeometry>
        </mxCell>
        <mxCell id="5p4-klABl4z1z5n9kfjx-95" value="" style="endArrow=none;html=1;fontFamily=Comic Sans MS;entryX=0;entryY=0.5;entryDx=0;entryDy=0;labelBackgroundColor=#F1FAEE;strokeColor=#457B9D;fontColor=#1D3557;" parent="1" target="5p4-klABl4z1z5n9kfjx-56" edge="1">
          <mxGeometry width="50" height="50" relative="1" as="geometry">
            <mxPoint x="152" y="380" as="sourcePoint" />
            <mxPoint x="259" y="551" as="targetPoint" />
          </mxGeometry>
        </mxCell>
        <mxCell id="5p4-klABl4z1z5n9kfjx-96" value="&lt;b style=&quot;font-size: 17px&quot;&gt;Select_Subscription&lt;br&gt;_plan&lt;/b&gt;" style="ellipse;whiteSpace=wrap;html=1;strokeWidth=4;fontFamily=Comic Sans MS;fillColor=#A8DADC;strokeColor=#457B9D;fontColor=#1D3557;" parent="1" vertex="1">
          <mxGeometry x="475" y="228" width="190" height="57" as="geometry" />
        </mxCell>
        <mxCell id="5p4-klABl4z1z5n9kfjx-97" value="&lt;b&gt;&lt;font style=&quot;font-size: 14px&quot;&gt;Select_Payment_Method&lt;/font&gt;&lt;/b&gt;" style="ellipse;whiteSpace=wrap;html=1;strokeWidth=4;fontFamily=Comic Sans MS;fillColor=#A8DADC;strokeColor=#457B9D;fontColor=#1D3557;" parent="1" vertex="1">
          <mxGeometry x="494" y="304" width="190" height="58" as="geometry" />
        </mxCell>
        <mxCell id="5p4-klABl4z1z5n9kfjx-98" value="&amp;lt;&amp;lt;include&amp;gt;&amp;gt;" style="edgeStyle=none;html=1;endArrow=open;verticalAlign=bottom;dashed=1;labelBackgroundColor=none;fontFamily=Comic Sans MS;entryX=0.414;entryY=1.05;entryDx=0;entryDy=0;entryPerimeter=0;exitX=0.5;exitY=0;exitDx=0;exitDy=0;strokeColor=#457B9D;fontColor=#1D3557;" parent="1" source="5p4-klABl4z1z5n9kfjx-53" target="5p4-klABl4z1z5n9kfjx-52" edge="1">
          <mxGeometry width="160" relative="1" as="geometry">
            <mxPoint x="304" y="380" as="sourcePoint" />
            <mxPoint x="426" y="361" as="targetPoint" />
          </mxGeometry>
        </mxCell>
        <mxCell id="0f_0SsKDqkv_gF9LSR3I-1" value="" style="endArrow=none;html=1;fontFamily=Comic Sans MS;entryX=0;entryY=0.5;entryDx=0;entryDy=0;labelBackgroundColor=#F1FAEE;strokeColor=#457B9D;fontColor=#1D3557;" parent="1" target="5p4-klABl4z1z5n9kfjx-55" edge="1">
          <mxGeometry width="50" height="50" relative="1" as="geometry">
            <mxPoint x="152" y="381" as="sourcePoint" />
            <mxPoint x="365" y="847" as="targetPoint" />
          </mxGeometry>
        </mxCell>
        <mxCell id="0f_0SsKDqkv_gF9LSR3I-2" value="" style="endArrow=none;html=1;fontFamily=Comic Sans MS;entryX=0;entryY=0.5;entryDx=0;entryDy=0;labelBackgroundColor=#F1FAEE;strokeColor=#457B9D;fontColor=#1D3557;" parent="1" target="5p4-klABl4z1z5n9kfjx-54" edge="1">
          <mxGeometry width="50" height="50" relative="1" as="geometry">
            <mxPoint x="154" y="384" as="sourcePoint" />
            <mxPoint x="291" y="537" as="targetPoint" />
          </mxGeometry>
        </mxCell>
        <mxCell id="0f_0SsKDqkv_gF9LSR3I-3" value="" style="endArrow=none;html=1;fontFamily=Comic Sans MS;entryX=0;entryY=0.5;entryDx=0;entryDy=0;labelBackgroundColor=#F1FAEE;strokeColor=#457B9D;fontColor=#1D3557;" parent="1" target="5p4-klABl4z1z5n9kfjx-45" edge="1">
          <mxGeometry width="50" height="50" relative="1" as="geometry">
            <mxPoint x="154" y="373" as="sourcePoint" />
            <mxPoint x="373" y="374" as="targetPoint" />
          </mxGeometry>
        </mxCell>
      </root>
    </mxGraphModel>
  </diagram>
</mxfile>
